<svg id="Capa_1" enable-background="new 0 0 510 510" height="512" viewBox="0 0 510 510" width="512" xmlns="http://www.w3.org/2000/svg"><g><path d="m510 160v350h-510v-350h127.43v15h303.14v-15z" fill="#a2e786"/><path d="m510 160v350h-231v-335h151.57v-15z" fill="#00cb75"/><path d="m409.5 510h-34.99l-76.37-127.28 25.72-15.44z" fill="#00a763"/><path d="m359 288h151v30h-151z" fill="#00a763"/><path d="m246.37 510h-38.55l-207.82-257.7v-47.8l78.48 97.32 72.8-43.68 15.44 25.72-69.23 41.54z" fill="#00cb75"/><path d="m446 167c0 77.81-112.394 205.471-167 261.5-54.551-55.973-167-183.614-167-261.5 0-92.08 74.92-167 167-167s167 74.92 167 167z" fill="#e6f8fc"/><path d="m446 167c0 77.81-112.394 205.471-167 261.5v-428.5c92.08 0 167 74.92 167 167z" fill="#cef2fb"/><path d="m374 165c0 30.386-24.601 55-55 55h-88c-25.92 0-47-21.08-47-47 0-21.065 13.731-38.445 32-44.57v-3.43c0-34.74 28.26-63 63-63 31.565 0 57.301 23.07 62.16 52.66 19.56 8.64 32.84 28.28 32.84 50.34z" fill="#00607f"/><path d="m374 165c0 30.386-24.601 55-55 55h-40v-158c31.565 0 57.301 23.07 62.16 52.66 19.56 8.64 32.84 28.28 32.84 50.34z" fill="#00465f"/><path d="m294 251h30v30h-30z" fill="#00a9de"/><path d="m232 251h30v30h-30z" fill="#00bff0"/></g></svg>